<svg xmlns="http://www.w3.org/2000/svg" viewBox="0 0 1600 900">
  <defs>
    <linearGradient id="polarAfter" x1="0" y1="0" x2="0" y2="1">
      <stop offset="0%" stop-color="#042e4c" />
      <stop offset="100%" stop-color="#031428" />
    </linearGradient>
    <linearGradient id="polarIce" x1="0" y1="0" x2="1" y2="0">
      <stop offset="0%" stop-color="#7cf5ff" />
      <stop offset="100%" stop-color="#b5f0ff" />
    </linearGradient>
  </defs>
  <rect width="1600" height="900" fill="url(#polarAfter)" />
  <ellipse cx="960" cy="160" rx="720" ry="280" fill="#50f8ff" opacity="0.4" />
  <g fill="#072741" opacity="0.8">
    <path d="M0 560 C200 500 360 540 560 580 C860 640 1100 560 1360 520 C1500 500 1580 520 1600 540 V900 H0 Z" />
  </g>
  <path d="M0 600 C220 660 420 640 640 600 C980 540 1240 600 1500 640 C1560 650 1600 640 1600 620 V900 H0 Z" fill="url(#polarIce)" opacity="0.85" />
  <g stroke="#1c87ff" stroke-width="8" stroke-linecap="round" stroke-opacity="0.6" fill="none">
    <path d="M120 640 Q320 600 520 640 T980 640 T1440 620" />
    <path d="M80 720 Q260 760 460 740 T1020 720 T1540 780" />
  </g>
</svg>
