<svg xmlns="http://www.w3.org/2000/svg" viewBox="0 0 1600 900">
  <defs>
    <linearGradient id="urbanBefore" x1="0" y1="1" x2="1" y2="0">
      <stop offset="0%" stop-color="#1b1f2a" />
      <stop offset="100%" stop-color="#0e111a" />
    </linearGradient>
  </defs>
  <rect width="1600" height="900" fill="url(#urbanBefore)" />
  <g fill="none" stroke="#3c4454" stroke-width="10" stroke-opacity="0.8">
    <path d="M200 900 V260 Q200 200 260 200 H400 Q460 200 460 260 V900" />
    <path d="M620 900 V240 Q620 180 680 180 H820 Q880 180 880 240 V900" />
    <path d="M1040 900 V280 Q1040 220 1100 220 H1240 Q1300 220 1300 280 V900" />
  </g>
  <g fill="#2d3340" opacity="0.6">
    <rect x="260" y="320" width="120" height="160" rx="16" />
    <rect x="680" y="360" width="140" height="200" rx="18" />
    <rect x="1120" y="340" width="120" height="180" rx="16" />
  </g>
</svg>
