<svg xmlns="http://www.w3.org/2000/svg" viewBox="0 0 1600 900">
  <defs>
    <linearGradient id="urbanAfter" x1="0" y1="1" x2="1" y2="0">
      <stop offset="0%" stop-color="#01281f" />
      <stop offset="60%" stop-color="#0f3d2d" />
      <stop offset="100%" stop-color="#1f835a" />
    </linearGradient>
    <radialGradient id="urbanGlow" cx="0.5" cy="0" r="0.9">
      <stop offset="0%" stop-color="#ffad66" stop-opacity="0.9" />
      <stop offset="100%" stop-color="#ffad66" stop-opacity="0" />
    </radialGradient>
  </defs>
  <rect width="1600" height="900" fill="url(#urbanAfter)" />
  <ellipse cx="800" cy="-40" rx="700" ry="420" fill="url(#urbanGlow)" />
  <g fill="none" stroke="#38efb8" stroke-width="12" stroke-linecap="round" stroke-opacity="0.8">
    <path d="M220 900 V320 Q220 240 300 240 H420 Q500 240 500 320 V900" />
    <path d="M640 900 V260 Q640 200 720 200 H860 Q940 200 940 260 V900" />
    <path d="M1080 900 V300 Q1080 240 1160 240 H1280 Q1360 240 1360 300 V900" />
  </g>
  <g fill="#0d2f24" stroke="#53f2c3" stroke-width="4" stroke-opacity="0.6">
    <rect x="300" y="360" width="120" height="200" rx="18" />
    <rect x="740" y="320" width="140" height="240" rx="20" />
    <rect x="1200" y="360" width="120" height="200" rx="18" />
  </g>
</svg>
